# xmcd CD database file
#
# Track frame offsets:
#	150
#	29707
#	50410
#	69742
#	85832
#	108147
#	131232
#	150497
#	172472
#	194127
#	222912
#	241922
#
# Disc length: 3439 seconds
#
# Revision: 1
# Processed by: cddbd v1.5.2PL0 Copyright (c) Steve Scherf et al.
# Submitted via: CDex 1.51
#
DISCID=b50d6d0c
DTITLE=Eagles - Eagles ("The Best of" from Japan)
DYEAR=1990
DGENRE=Country
TTITLE0=Hotel California
TTITLE1=Best of my love
TTITLE2=Already gone
TTITLE3=Take it easy
TTITLE4=Wasted time
TTITLE5=New kid in town
TTITLE6=Witchy woman
TTITLE7=One of this nights
TTITLE8=Life in the fast lane
TTITLE9=Lyin' eyes
TTITLE10=Victim of love
TTITLE11=Desperado
EXTD=YEAR: 1990
EXTT0=
EXTT1=
EXTT2=
EXTT3=
EXTT4=
EXTT5=
EXTT6=
EXTT7=
EXTT8=
EXTT9=
EXTT10=
EXTT11=
PLAYORDER=
